<?xml version="1.0" encoding="utf-8" standalone="no"?>
<!DOCTYPE svg PUBLIC "-//W3C//DTD SVG 1.1//EN"
  "http://www.w3.org/Graphics/SVG/1.1/DTD/svg11.dtd">
<svg xmlns:xlink="http://www.w3.org/1999/xlink" width="958.479687pt" height="557.70125pt" viewBox="0 0 958.479687 557.70125" xmlns="http://www.w3.org/2000/svg" version="1.1">
 <metadata>
  <rdf:RDF xmlns:dc="http://purl.org/dc/elements/1.1/" xmlns:cc="http://creativecommons.org/ns#" xmlns:rdf="http://www.w3.org/1999/02/22-rdf-syntax-ns#">
   <cc:Work>
    <dc:type rdf:resource="http://purl.org/dc/dcmitype/StillImage"/>
    <dc:date>2026-02-10T22:28:55.468029</dc:date>
    <dc:format>image/svg+xml</dc:format>
    <dc:creator>
     <cc:Agent>
      <dc:title>Matplotlib v3.10.8, https://matplotlib.org/</dc:title>
     </cc:Agent>
    </dc:creator>
   </cc:Work>
  </rdf:RDF>
 </metadata>
 <defs>
  <style type="text/css">*{stroke-linejoin: round; stroke-linecap: butt}</style>
 </defs>
 <g id="figure_1">
  <g id="patch_1">
   <path d="M 0 557.70125 
L 958.479687 557.70125 
L 958.479687 0 
L 0 0 
z
" style="fill: #ffffff"/>
  </g>
  <g id="axes_1">
   <g id="patch_2">
    <path d="M 50.979687 520.62 
L 943.779687 520.62 
L 943.779687 21.66 
L 50.979687 21.66 
z
" style="fill: #ffffff"/>
   </g>
   <g id="matplotlib.axis_1">
    <g id="xtick_1">
     <g id="line2d_1">
      <path d="M 50.979687 520.62 
L 50.979687 21.66 
" clip-path="url(#p08d82149e0)" style="fill: none; stroke: #b0b0b0; stroke-width: 0.8; stroke-linecap: square"/>
     </g>
     <g id="line2d_2">
      <defs>
       <path id="m0a4cfceb35" d="M 0 0 
L 0 3.5 
" style="stroke: #000000; stroke-width: 0.8"/>
      </defs>
      <g>
       <use xlink:href="#m0a4cfceb35" x="50.979687" y="520.62" style="stroke: #000000; stroke-width: 0.8"/>
      </g>
     </g>
     <g id="text_1">
      <!-- 0 -->
      <g transform="translate(48.479687 534.560625) scale(0.1 -0.1)">
       <defs>
        <path id="CMUSerif-Roman-30" d="M 250 2048 
Q 250 2989 486 3501 
Q 819 4262 1600 4262 
Q 1766 4262 1939 4217 
Q 2112 4173 2333 4000 
Q 2554 3827 2688 3546 
Q 2944 3002 2944 2048 
Q 2944 1114 2707 602 
Q 2362 -141 1594 -141 
Q 1306 -141 1014 6 
Q 723 154 538 506 
Q 250 1037 250 2048 
z
M 781 2125 
Q 781 1158 851 774 
Q 928 358 1142 179 
Q 1357 0 1594 0 
Q 1850 0 2064 192 
Q 2278 384 2342 800 
Q 2413 1210 2413 2125 
Q 2413 3014 2349 3373 
Q 2266 3789 2042 3955 
Q 1818 4122 1594 4122 
Q 1510 4122 1420 4096 
Q 1331 4070 1203 4000 
Q 1075 3930 976 3750 
Q 877 3571 832 3302 
Q 781 2957 781 2125 
z
" transform="scale(0.015625)"/>
       </defs>
       <use xlink:href="#CMUSerif-Roman-30"/>
      </g>
     </g>
    </g>
    <g id="xtick_2">
     <g id="line2d_3">
      <path d="M 150.179688 520.62 
L 150.179688 21.66 
" clip-path="url(#p08d82149e0)" style="fill: none; stroke: #b0b0b0; stroke-width: 0.8; stroke-linecap: square"/>
     </g>
     <g id="line2d_4">
      <g>
       <use xlink:href="#m0a4cfceb35" x="150.179688" y="520.62" style="stroke: #000000; stroke-width: 0.8"/>
      </g>
     </g>
     <g id="text_2">
      <!-- 100 -->
      <g transform="translate(142.679688 534.560625) scale(0.1 -0.1)">
       <defs>
        <path id="CMUSerif-Roman-31" d="M 570 3654 
L 570 3853 
Q 1338 3853 1734 4262 
Q 1843 4262 1862 4236 
Q 1882 4211 1882 4096 
L 1882 506 
Q 1882 314 1974 256 
Q 2067 198 2477 198 
L 2682 198 
L 2682 0 
Q 2458 19 1645 19 
Q 832 19 608 0 
L 608 198 
L 813 198 
Q 1216 198 1312 256 
Q 1408 314 1408 506 
L 1408 3821 
Q 1075 3654 570 3654 
z
" transform="scale(0.015625)"/>
       </defs>
       <use xlink:href="#CMUSerif-Roman-31"/>
       <use xlink:href="#CMUSerif-Roman-30" transform="translate(49.999985 0)"/>
       <use xlink:href="#CMUSerif-Roman-30" transform="translate(99.999969 0)"/>
      </g>
     </g>
    </g>
    <g id="xtick_3">
     <g id="line2d_5">
      <path d="M 249.379687 520.62 
L 249.379687 21.66 
" clip-path="url(#p08d82149e0)" style="fill: none; stroke: #b0b0b0; stroke-width: 0.8; stroke-linecap: square"/>
     </g>
     <g id="line2d_6">
      <g>
       <use xlink:href="#m0a4cfceb35" x="249.379687" y="520.62" style="stroke: #000000; stroke-width: 0.8"/>
      </g>
     </g>
     <g id="text_3">
      <!-- 200 -->
      <g transform="translate(241.879687 534.560625) scale(0.1 -0.1)">
       <defs>
        <path id="CMUSerif-Roman-32" d="M 320 0 
Q 320 115 329 150 
Q 339 186 390 237 
L 1619 1606 
Q 2291 2362 2291 3021 
Q 2291 3450 2067 3757 
Q 1843 4064 1434 4064 
Q 1152 4064 915 3891 
Q 678 3718 570 3411 
Q 589 3418 653 3418 
Q 813 3418 902 3318 
Q 992 3219 992 3085 
Q 992 2912 880 2829 
Q 768 2746 659 2746 
Q 614 2746 556 2755 
Q 499 2765 409 2854 
Q 320 2944 320 3104 
Q 320 3552 659 3907 
Q 998 4262 1517 4262 
Q 2106 4262 2490 3913 
Q 2874 3565 2874 3021 
Q 2874 2829 2816 2656 
Q 2758 2483 2681 2348 
Q 2605 2214 2400 2000 
Q 2195 1786 2028 1632 
Q 1862 1478 1491 1152 
L 813 493 
L 1965 493 
Q 2528 493 2573 544 
Q 2637 634 2714 1114 
L 2874 1114 
L 2694 0 
L 320 0 
z
" transform="scale(0.015625)"/>
       </defs>
       <use xlink:href="#CMUSerif-Roman-32"/>
       <use xlink:href="#CMUSerif-Roman-30" transform="translate(49.999985 0)"/>
       <use xlink:href="#CMUSerif-Roman-30" transform="translate(99.999969 0)"/>
      </g>
     </g>
    </g>
    <g id="xtick_4">
     <g id="line2d_7">
      <path d="M 348.579688 520.62 
L 348.579688 21.66 
" clip-path="url(#p08d82149e0)" style="fill: none; stroke: #b0b0b0; stroke-width: 0.8; stroke-linecap: square"/>
     </g>
     <g id="line2d_8">
      <g>
       <use xlink:href="#m0a4cfceb35" x="348.579688" y="520.62" style="stroke: #000000; stroke-width: 0.8"/>
      </g>
     </g>
     <g id="text_4">
      <!-- 300 -->
      <g transform="translate(341.079688 534.560625) scale(0.1 -0.1)">
       <defs>
        <path id="CMUSerif-Roman-33" d="M 269 864 
Q 269 1056 377 1145 
Q 486 1235 627 1235 
Q 774 1235 880 1139 
Q 986 1043 986 877 
Q 986 698 861 598 
Q 736 499 563 525 
Q 717 269 998 153 
Q 1280 38 1542 38 
Q 1818 38 2042 275 
Q 2266 512 2266 1094 
Q 2266 1587 2074 1872 
Q 1882 2157 1504 2157 
L 1222 2157 
Q 1126 2157 1097 2166 
Q 1069 2176 1069 2227 
Q 1069 2291 1165 2304 
Q 1261 2304 1414 2323 
Q 1786 2336 1984 2656 
Q 2163 2957 2163 3386 
Q 2163 3776 1977 3939 
Q 1792 4102 1549 4102 
Q 1325 4102 1078 4009 
Q 832 3917 698 3706 
Q 1094 3706 1094 3386 
Q 1094 3245 1004 3152 
Q 915 3059 768 3059 
Q 627 3059 534 3148 
Q 442 3238 442 3392 
Q 442 3757 768 4009 
Q 1094 4262 1574 4262 
Q 2048 4262 2400 4012 
Q 2752 3763 2752 3379 
Q 2752 3002 2502 2691 
Q 2253 2381 1856 2253 
Q 2342 2157 2633 1827 
Q 2925 1498 2925 1094 
Q 2925 595 2531 227 
Q 2138 -141 1562 -141 
Q 1030 -141 649 147 
Q 269 435 269 864 
z
" transform="scale(0.015625)"/>
       </defs>
       <use xlink:href="#CMUSerif-Roman-33"/>
       <use xlink:href="#CMUSerif-Roman-30" transform="translate(49.999985 0)"/>
       <use xlink:href="#CMUSerif-Roman-30" transform="translate(99.999969 0)"/>
      </g>
     </g>
    </g>
    <g id="xtick_5">
     <g id="line2d_9">
      <path d="M 447.779688 520.62 
L 447.779688 21.66 
" clip-path="url(#p08d82149e0)" style="fill: none; stroke: #b0b0b0; stroke-width: 0.8; stroke-linecap: square"/>
     </g>
     <g id="line2d_10">
      <g>
       <use xlink:href="#m0a4cfceb35" x="447.779688" y="520.62" style="stroke: #000000; stroke-width: 0.8"/>
      </g>
     </g>
     <g id="text_5">
      <!-- 400 -->
      <g transform="translate(440.279688 534.560625) scale(0.1 -0.1)">
       <defs>
        <path id="CMUSerif-Roman-34" d="M 179 1056 
L 179 1254 
L 2144 4256 
Q 2195 4333 2272 4333 
Q 2342 4333 2358 4304 
Q 2374 4275 2374 4166 
L 2374 1254 
L 3014 1254 
L 3014 1056 
L 2374 1056 
L 2374 499 
Q 2374 314 2451 256 
Q 2528 198 2861 198 
L 2995 198 
L 2995 0 
Q 2733 19 2125 19 
Q 1523 19 1261 0 
L 1261 198 
L 1395 198 
Q 1728 198 1805 256 
Q 1882 314 1882 499 
L 1882 1056 
L 179 1056 
z
M 358 1254 
L 1920 1254 
L 1920 3642 
L 358 1254 
z
" transform="scale(0.015625)"/>
       </defs>
       <use xlink:href="#CMUSerif-Roman-34"/>
       <use xlink:href="#CMUSerif-Roman-30" transform="translate(49.999985 0)"/>
       <use xlink:href="#CMUSerif-Roman-30" transform="translate(99.999969 0)"/>
      </g>
     </g>
    </g>
    <g id="xtick_6">
     <g id="line2d_11">
      <path d="M 546.979687 520.62 
L 546.979687 21.66 
" clip-path="url(#p08d82149e0)" style="fill: none; stroke: #b0b0b0; stroke-width: 0.8; stroke-linecap: square"/>
     </g>
     <g id="line2d_12">
      <g>
       <use xlink:href="#m0a4cfceb35" x="546.979687" y="520.62" style="stroke: #000000; stroke-width: 0.8"/>
      </g>
     </g>
     <g id="text_6">
      <!-- 500 -->
      <g transform="translate(539.479687 534.560625) scale(0.1 -0.1)">
       <defs>
        <path id="CMUSerif-Roman-35" d="M 320 1030 
Q 320 1222 422 1296 
Q 525 1370 634 1370 
Q 781 1370 867 1277 
Q 954 1184 954 1056 
Q 954 928 867 835 
Q 781 742 634 742 
Q 563 742 525 755 
Q 608 461 867 249 
Q 1126 38 1466 38 
Q 1894 38 2150 454 
Q 2304 723 2304 1331 
Q 2304 1869 2189 2138 
Q 2010 2547 1645 2547 
Q 1126 2547 819 2099 
Q 781 2042 736 2042 
Q 672 2042 659 2077 
Q 646 2112 646 2208 
L 646 4102 
Q 646 4256 710 4256 
Q 736 4256 787 4237 
Q 1190 4058 1638 4058 
Q 2099 4058 2509 4243 
Q 2541 4262 2560 4262 
Q 2624 4262 2624 4192 
Q 2624 4166 2573 4092 
Q 2522 4019 2413 3923 
Q 2304 3827 2163 3737 
Q 2022 3648 1817 3587 
Q 1613 3526 1389 3526 
Q 1120 3526 845 3610 
L 845 2362 
Q 1178 2688 1658 2688 
Q 2170 2688 2522 2275 
Q 2874 1862 2874 1286 
Q 2874 685 2458 272 
Q 2042 -141 1478 -141 
Q 966 -141 643 224 
Q 320 589 320 1030 
z
" transform="scale(0.015625)"/>
       </defs>
       <use xlink:href="#CMUSerif-Roman-35"/>
       <use xlink:href="#CMUSerif-Roman-30" transform="translate(49.999985 0)"/>
       <use xlink:href="#CMUSerif-Roman-30" transform="translate(99.999969 0)"/>
      </g>
     </g>
    </g>
    <g id="xtick_7">
     <g id="line2d_13">
      <path d="M 646.179688 520.62 
L 646.179688 21.66 
" clip-path="url(#p08d82149e0)" style="fill: none; stroke: #b0b0b0; stroke-width: 0.8; stroke-linecap: square"/>
     </g>
     <g id="line2d_14">
      <g>
       <use xlink:href="#m0a4cfceb35" x="646.179688" y="520.62" style="stroke: #000000; stroke-width: 0.8"/>
      </g>
     </g>
     <g id="text_7">
      <!-- 600 -->
      <g transform="translate(638.679688 534.560625) scale(0.1 -0.1)">
       <defs>
        <path id="CMUSerif-Roman-36" d="M 269 2022 
Q 269 3027 781 3644 
Q 1293 4262 1952 4262 
Q 2336 4262 2550 4067 
Q 2765 3872 2765 3571 
Q 2765 3405 2669 3334 
Q 2573 3264 2470 3264 
Q 2355 3264 2265 3341 
Q 2176 3418 2176 3558 
Q 2176 3846 2528 3846 
Q 2362 4102 1965 4102 
Q 1843 4102 1718 4067 
Q 1594 4032 1430 3913 
Q 1267 3795 1142 3606 
Q 1018 3418 931 3066 
Q 845 2714 845 2253 
L 845 2099 
Q 1107 2733 1644 2733 
Q 2182 2733 2553 2323 
Q 2925 1914 2925 1306 
Q 2925 685 2537 272 
Q 2150 -141 1606 -141 
Q 1363 -141 1142 -38 
Q 922 64 717 294 
Q 512 525 390 969 
Q 269 1414 269 2022 
z
M 858 1446 
Q 858 819 973 518 
Q 992 467 1033 400 
Q 1075 333 1148 243 
Q 1222 154 1344 96 
Q 1466 38 1606 38 
Q 2035 38 2240 454 
Q 2349 685 2349 1312 
Q 2349 1952 2234 2189 
Q 2035 2586 1638 2586 
Q 1370 2586 1184 2400 
Q 998 2214 928 1968 
Q 858 1722 858 1446 
z
" transform="scale(0.015625)"/>
       </defs>
       <use xlink:href="#CMUSerif-Roman-36"/>
       <use xlink:href="#CMUSerif-Roman-30" transform="translate(49.999985 0)"/>
       <use xlink:href="#CMUSerif-Roman-30" transform="translate(99.999969 0)"/>
      </g>
     </g>
    </g>
    <g id="xtick_8">
     <g id="line2d_15">
      <path d="M 745.379687 520.62 
L 745.379687 21.66 
" clip-path="url(#p08d82149e0)" style="fill: none; stroke: #b0b0b0; stroke-width: 0.8; stroke-linecap: square"/>
     </g>
     <g id="line2d_16">
      <g>
       <use xlink:href="#m0a4cfceb35" x="745.379687" y="520.62" style="stroke: #000000; stroke-width: 0.8"/>
      </g>
     </g>
     <g id="text_8">
      <!-- 700 -->
      <g transform="translate(737.879687 534.560625) scale(0.1 -0.1)">
       <defs>
        <path id="CMUSerif-Roman-37" d="M 358 3008 
L 570 4326 
L 730 4326 
Q 749 4250 781 4214 
Q 813 4179 995 4150 
Q 1178 4122 1549 4122 
L 3104 4122 
Q 3104 3974 3046 3898 
L 2182 2682 
Q 1907 2298 1786 1587 
Q 1715 1114 1715 538 
L 1715 211 
Q 1715 -141 1420 -141 
Q 1126 -141 1126 211 
Q 1126 1434 1914 2618 
Q 1997 2739 2307 3174 
Q 2618 3610 2630 3629 
L 1306 3629 
Q 723 3629 678 3590 
Q 614 3533 518 3008 
L 358 3008 
z
" transform="scale(0.015625)"/>
       </defs>
       <use xlink:href="#CMUSerif-Roman-37"/>
       <use xlink:href="#CMUSerif-Roman-30" transform="translate(49.999985 0)"/>
       <use xlink:href="#CMUSerif-Roman-30" transform="translate(99.999969 0)"/>
      </g>
     </g>
    </g>
    <g id="xtick_9">
     <g id="line2d_17">
      <path d="M 844.579687 520.62 
L 844.579687 21.66 
" clip-path="url(#p08d82149e0)" style="fill: none; stroke: #b0b0b0; stroke-width: 0.8; stroke-linecap: square"/>
     </g>
     <g id="line2d_18">
      <g>
       <use xlink:href="#m0a4cfceb35" x="844.579687" y="520.62" style="stroke: #000000; stroke-width: 0.8"/>
      </g>
     </g>
     <g id="text_9">
      <!-- 800 -->
      <g transform="translate(837.079687 534.560625) scale(0.1 -0.1)">
       <defs>
        <path id="CMUSerif-Roman-38" d="M 269 966 
Q 269 1683 1190 2144 
Q 794 2413 723 2490 
Q 442 2803 442 3194 
Q 442 3642 781 3952 
Q 1120 4262 1600 4262 
Q 2061 4262 2406 3996 
Q 2752 3731 2752 3309 
Q 2752 2714 1978 2317 
Q 2490 1997 2611 1862 
Q 2925 1517 2925 1075 
Q 2925 563 2531 211 
Q 2138 -141 1594 -141 
Q 1062 -141 665 169 
Q 269 480 269 966 
z
M 589 966 
Q 589 570 886 304 
Q 1184 38 1600 38 
Q 2003 38 2304 268 
Q 2605 499 2605 845 
Q 2605 979 2560 1094 
Q 2515 1210 2425 1302 
Q 2336 1395 2281 1436 
Q 2227 1478 2125 1549 
L 1338 2048 
Q 589 1632 589 966 
z
M 723 3443 
Q 723 3136 1043 2925 
L 1837 2413 
Q 2470 2784 2470 3309 
Q 2470 3648 2211 3875 
Q 1952 4102 1594 4102 
Q 1242 4102 982 3916 
Q 723 3731 723 3443 
z
" transform="scale(0.015625)"/>
       </defs>
       <use xlink:href="#CMUSerif-Roman-38"/>
       <use xlink:href="#CMUSerif-Roman-30" transform="translate(49.999985 0)"/>
       <use xlink:href="#CMUSerif-Roman-30" transform="translate(99.999969 0)"/>
      </g>
     </g>
    </g>
    <g id="xtick_10">
     <g id="line2d_19">
      <path d="M 943.779687 520.62 
L 943.779687 21.66 
" clip-path="url(#p08d82149e0)" style="fill: none; stroke: #b0b0b0; stroke-width: 0.8; stroke-linecap: square"/>
     </g>
     <g id="line2d_20">
      <g>
       <use xlink:href="#m0a4cfceb35" x="943.779687" y="520.62" style="stroke: #000000; stroke-width: 0.8"/>
      </g>
     </g>
     <g id="text_10">
      <!-- 900 -->
      <g transform="translate(936.279687 534.560625) scale(0.1 -0.1)">
       <defs>
        <path id="CMUSerif-Roman-39" d="M 269 2822 
Q 269 3162 368 3395 
Q 467 3629 678 3859 
Q 1062 4262 1619 4262 
Q 1856 4262 2067 4163 
Q 2278 4064 2480 3837 
Q 2682 3610 2803 3165 
Q 2925 2720 2925 2106 
Q 2925 1114 2445 486 
Q 1965 -141 1318 -141 
Q 909 -141 669 44 
Q 429 230 429 550 
Q 429 717 521 787 
Q 614 858 723 858 
Q 838 858 928 781 
Q 1018 704 1018 563 
Q 1018 448 944 358 
Q 870 269 685 269 
Q 870 38 1312 38 
Q 1472 38 1632 112 
Q 1792 186 1965 365 
Q 2138 544 2243 921 
Q 2349 1299 2349 1830 
L 2349 2035 
Q 2093 1395 1549 1395 
Q 1011 1395 640 1808 
Q 269 2221 269 2822 
z
M 845 2816 
Q 845 2182 960 1946 
Q 1158 1542 1555 1542 
Q 1946 1542 2141 1891 
Q 2336 2240 2336 2694 
Q 2336 3322 2234 3597 
Q 2042 4102 1619 4102 
Q 1197 4102 979 3699 
Q 845 3462 845 2816 
z
" transform="scale(0.015625)"/>
       </defs>
       <use xlink:href="#CMUSerif-Roman-39"/>
       <use xlink:href="#CMUSerif-Roman-30" transform="translate(49.999985 0)"/>
       <use xlink:href="#CMUSerif-Roman-30" transform="translate(99.999969 0)"/>
      </g>
     </g>
    </g>
    <g id="text_11">
     <!-- Fréquence (Hz) -->
     <g transform="translate(463.583594 548.00125) scale(0.1 -0.1)">
      <defs>
       <path id="CMUSerif-Roman-46" d="M 211 0 
L 211 198 
L 365 198 
Q 710 198 790 256 
Q 870 314 870 499 
L 870 3853 
Q 870 4038 790 4096 
Q 710 4154 365 4154 
L 211 4154 
L 211 4352 
L 3725 4352 
L 3904 2912 
L 3744 2912 
Q 3699 3277 3641 3485 
Q 3584 3693 3453 3859 
Q 3322 4026 3101 4090 
Q 2880 4154 2522 4154 
L 1754 4154 
Q 1536 4154 1488 4109 
Q 1440 4064 1440 3898 
L 1440 2278 
L 1990 2278 
Q 2426 2278 2547 2435 
Q 2669 2592 2669 3027 
L 2829 3027 
L 2829 1331 
L 2669 1331 
Q 2669 1773 2547 1926 
Q 2426 2080 1990 2080 
L 1440 2080 
L 1440 506 
Q 1440 371 1462 320 
Q 1485 269 1619 233 
Q 1754 198 2048 198 
L 2259 198 
L 2259 0 
Q 2029 19 1184 19 
Q 435 19 211 0 
z
" transform="scale(0.015625)"/>
       <path id="CMUSerif-Roman-72" d="M 179 0 
L 179 198 
Q 518 198 598 240 
Q 678 282 678 486 
L 678 2202 
Q 678 2438 595 2499 
Q 512 2560 179 2560 
L 179 2758 
L 1069 2829 
L 1069 2125 
Q 1158 2400 1350 2614 
Q 1542 2829 1856 2829 
Q 2061 2829 2195 2713 
Q 2330 2598 2330 2438 
Q 2330 2298 2243 2227 
Q 2157 2157 2054 2157 
Q 1939 2157 1859 2230 
Q 1779 2304 1779 2432 
Q 1779 2509 1814 2569 
Q 1850 2630 1878 2652 
Q 1907 2675 1926 2682 
Q 1914 2688 1856 2688 
Q 1504 2688 1302 2336 
Q 1101 1984 1101 1485 
L 1101 499 
Q 1101 314 1177 256 
Q 1254 198 1587 198 
L 1722 198 
L 1722 0 
Q 1466 19 909 19 
Q 832 19 710 16 
Q 589 13 429 6 
Q 269 0 179 0 
z
" transform="scale(0.015625)"/>
       <path id="CMUSerif-Roman-e9" d="M 834 3264 
Q 1006 3430 1256 3674 
Q 1563 3981 1643 4045 
Q 1723 4109 1794 4109 
Q 1890 4109 1954 4032 
Q 2018 3955 2018 3872 
Q 2018 3834 2005 3805 
Q 1992 3776 1976 3753 
Q 1960 3731 1931 3708 
Q 1902 3686 1886 3676 
Q 1870 3667 1835 3648 
Q 1800 3629 1794 3622 
Q 955 3149 930 3136 
L 834 3264 
z
M 179 1408 
Q 179 2010 566 2438 
Q 954 2867 1510 2867 
Q 2074 2867 2365 2502 
Q 2656 2138 2656 1613 
Q 2656 1517 2630 1497 
Q 2605 1478 2496 1478 
L 710 1478 
Q 710 826 902 518 
Q 1171 90 1626 90 
Q 1690 90 1763 102 
Q 1837 115 1990 169 
Q 2144 224 2278 371 
Q 2413 518 2490 749 
Q 2509 838 2573 838 
Q 2656 838 2656 762 
Q 2656 704 2595 579 
Q 2534 454 2419 304 
Q 2304 154 2080 42 
Q 1856 -70 1587 -70 
Q 1024 -70 601 355 
Q 179 781 179 1408 
z
M 717 1613 
L 2234 1613 
Q 2234 1747 2211 1897 
Q 2189 2048 2121 2256 
Q 2054 2464 1897 2595 
Q 1741 2726 1510 2726 
Q 1408 2726 1296 2681 
Q 1184 2637 1049 2531 
Q 915 2426 822 2186 
Q 730 1946 717 1613 
z
" transform="scale(0.015625)"/>
       <path id="CMUSerif-Roman-71" d="M 218 1376 
Q 218 1990 640 2409 
Q 1062 2829 1632 2829 
Q 1869 2829 2064 2713 
Q 2259 2598 2345 2483 
Q 2432 2368 2490 2246 
L 2733 2829 
L 2874 2829 
L 2874 -755 
Q 2874 -960 2954 -1001 
Q 3034 -1043 3373 -1043 
L 3373 -1242 
Q 2701 -1222 2650 -1222 
Q 2586 -1222 1933 -1242 
L 1933 -1043 
Q 2272 -1043 2352 -1001 
Q 2432 -960 2432 -755 
L 2432 390 
Q 2080 -70 1581 -70 
Q 1024 -70 621 355 
Q 218 781 218 1376 
z
M 749 1376 
Q 749 826 1001 448 
Q 1254 70 1606 70 
Q 1952 70 2195 333 
Q 2451 614 2451 870 
L 2451 1773 
Q 2451 2074 2236 2371 
Q 2022 2669 1670 2669 
Q 1306 2669 1027 2301 
Q 749 1933 749 1376 
z
" transform="scale(0.015625)"/>
       <path id="CMUSerif-Roman-75" d="M 205 2560 
L 205 2758 
L 1146 2829 
L 1146 704 
Q 1146 550 1158 460 
Q 1171 371 1222 268 
Q 1274 166 1395 118 
Q 1517 70 1709 70 
Q 2054 70 2268 355 
Q 2483 640 2483 1062 
L 2483 2202 
Q 2483 2438 2400 2499 
Q 2317 2560 1984 2560 
L 1984 2758 
L 2925 2829 
L 2925 557 
Q 2925 320 3008 259 
Q 3091 198 3424 198 
L 3424 0 
L 2502 -70 
L 2502 506 
Q 2234 -70 1677 -70 
Q 1395 -70 1203 0 
Q 1011 70 915 160 
Q 819 250 768 422 
Q 717 595 710 700 
Q 704 806 704 1011 
L 704 1971 
Q 704 2406 640 2483 
Q 576 2560 205 2560 
z
" transform="scale(0.015625)"/>
       <path id="CMUSerif-Roman-65" d="M 179 1408 
Q 179 2010 566 2438 
Q 954 2867 1510 2867 
Q 2074 2867 2365 2502 
Q 2656 2138 2656 1613 
Q 2656 1517 2630 1497 
Q 2605 1478 2496 1478 
L 710 1478 
Q 710 826 902 518 
Q 1171 90 1626 90 
Q 1690 90 1763 102 
Q 1837 115 1990 169 
Q 2144 224 2278 371 
Q 2413 518 2490 749 
Q 2509 838 2573 838 
Q 2656 838 2656 762 
Q 2656 704 2595 579 
Q 2534 454 2419 304 
Q 2304 154 2080 42 
Q 1856 -70 1587 -70 
Q 1024 -70 601 355 
Q 179 781 179 1408 
z
M 717 1613 
L 2234 1613 
Q 2234 1747 2211 1897 
Q 2189 2048 2121 2256 
Q 2054 2464 1897 2595 
Q 1741 2726 1510 2726 
Q 1408 2726 1296 2681 
Q 1184 2637 1049 2531 
Q 915 2426 822 2186 
Q 730 1946 717 1613 
z
" transform="scale(0.015625)"/>
       <path id="CMUSerif-Roman-6e" d="M 205 0 
L 205 198 
Q 544 198 624 240 
Q 704 282 704 486 
L 704 2202 
Q 704 2438 621 2499 
Q 538 2560 205 2560 
L 205 2758 
L 1107 2829 
L 1107 2157 
Q 1408 2829 2054 2829 
Q 2534 2829 2726 2592 
Q 2867 2432 2896 2253 
Q 2925 2074 2925 1613 
L 2925 390 
Q 2931 256 3033 227 
Q 3136 198 3424 198 
L 3424 0 
Q 2771 19 2707 19 
Q 2656 19 1984 0 
L 1984 198 
Q 2323 198 2403 240 
Q 2483 282 2483 486 
L 2483 1978 
Q 2483 2304 2384 2496 
Q 2285 2688 2010 2688 
Q 1677 2688 1411 2409 
Q 1146 2131 1146 1664 
L 1146 486 
Q 1146 282 1226 240 
Q 1306 198 1645 198 
L 1645 0 
Q 992 19 928 19 
Q 877 19 205 0 
z
" transform="scale(0.015625)"/>
       <path id="CMUSerif-Roman-63" d="M 624 352 
Q 218 774 218 1382 
Q 218 1990 618 2428 
Q 1018 2867 1606 2867 
Q 1997 2867 2291 2681 
Q 2586 2496 2586 2182 
Q 2586 2042 2502 1962 
Q 2419 1882 2291 1882 
Q 2157 1882 2077 1965 
Q 1997 2048 1997 2176 
Q 1997 2234 2016 2288 
Q 2035 2342 2105 2403 
Q 2176 2464 2298 2470 
Q 2067 2707 1613 2707 
Q 1286 2707 1017 2400 
Q 749 2093 749 1395 
Q 749 1030 838 761 
Q 928 493 1075 355 
Q 1222 218 1366 154 
Q 1510 90 1651 90 
Q 2278 90 2490 762 
Q 2509 826 2573 826 
Q 2656 826 2656 762 
Q 2656 730 2630 650 
Q 2605 570 2528 442 
Q 2451 314 2339 202 
Q 2227 90 2032 10 
Q 1837 -70 1594 -70 
Q 1030 -70 624 352 
z
" transform="scale(0.015625)"/>
       <path id="CMUSerif-Roman-20" transform="scale(0.015625)"/>
       <path id="CMUSerif-Roman-28" d="M 634 1600 
Q 634 2682 1037 3552 
Q 1210 3917 1450 4224 
Q 1690 4531 1850 4665 
Q 2010 4800 2054 4800 
Q 2118 4800 2118 4736 
Q 2118 4704 2035 4627 
Q 1005 3578 1005 1600 
Q 1005 -384 2010 -1395 
Q 2118 -1504 2118 -1536 
Q 2118 -1600 2054 -1600 
Q 2010 -1600 1856 -1472 
Q 1702 -1344 1465 -1049 
Q 1229 -755 1056 -397 
Q 634 474 634 1600 
z
" transform="scale(0.015625)"/>
       <path id="CMUSerif-Roman-48" d="M 211 0 
L 211 198 
L 365 198 
Q 710 198 790 256 
Q 870 314 870 499 
L 870 3872 
Q 870 4058 790 4115 
Q 710 4173 365 4173 
L 211 4173 
L 211 4371 
Q 435 4352 1158 4352 
Q 1875 4352 2099 4371 
L 2099 4173 
L 1946 4173 
Q 1600 4173 1520 4115 
Q 1440 4058 1440 3872 
L 1440 2374 
L 3354 2374 
L 3354 3872 
Q 3354 4058 3274 4115 
Q 3194 4173 2848 4173 
L 2694 4173 
L 2694 4371 
Q 2918 4352 3642 4352 
Q 4358 4352 4582 4371 
L 4582 4173 
L 4429 4173 
Q 4083 4173 4003 4115 
Q 3923 4058 3923 3872 
L 3923 499 
Q 3923 314 4003 256 
Q 4083 198 4429 198 
L 4582 198 
L 4582 0 
Q 4358 19 3635 19 
Q 2918 19 2694 0 
L 2694 198 
L 2848 198 
Q 3194 198 3274 256 
Q 3354 314 3354 499 
L 3354 2176 
L 1440 2176 
L 1440 499 
Q 1440 314 1520 256 
Q 1600 198 1946 198 
L 2099 198 
L 2099 0 
Q 1875 19 1152 19 
Q 435 19 211 0 
z
" transform="scale(0.015625)"/>
       <path id="CMUSerif-Roman-7a" d="M 179 90 
Q 179 134 237 205 
L 2022 2618 
L 1293 2618 
Q 787 2618 624 2432 
Q 461 2246 429 1728 
L 269 1728 
L 339 2758 
L 2387 2758 
Q 2458 2758 2486 2755 
Q 2515 2752 2534 2733 
Q 2554 2714 2554 2675 
Q 2554 2637 2496 2566 
L 717 160 
L 1472 160 
Q 2003 160 2182 381 
Q 2362 602 2406 1197 
L 2566 1197 
L 2458 0 
L 346 0 
Q 243 0 211 13 
Q 179 26 179 90 
z
" transform="scale(0.015625)"/>
       <path id="CMUSerif-Roman-29" d="M 365 -1536 
Q 365 -1504 448 -1427 
Q 1478 -378 1478 1600 
Q 1478 3584 486 4589 
Q 365 4704 365 4736 
Q 365 4800 429 4800 
Q 474 4800 627 4672 
Q 781 4544 1017 4249 
Q 1254 3955 1427 3597 
Q 1850 2726 1850 1600 
Q 1850 518 1446 -352 
Q 1274 -717 1034 -1024 
Q 794 -1331 634 -1465 
Q 474 -1600 429 -1600 
Q 365 -1600 365 -1536 
z
" transform="scale(0.015625)"/>
      </defs>
      <use xlink:href="#CMUSerif-Roman-46"/>
      <use xlink:href="#CMUSerif-Roman-72" transform="translate(65.199997 0)"/>
      <use xlink:href="#CMUSerif-Roman-e9" transform="translate(104.299988 0)"/>
      <use xlink:href="#CMUSerif-Roman-71" transform="translate(148.699982 0)"/>
      <use xlink:href="#CMUSerif-Roman-75" transform="translate(201.399979 0)"/>
      <use xlink:href="#CMUSerif-Roman-65" transform="translate(256.899963 0)"/>
      <use xlink:href="#CMUSerif-Roman-6e" transform="translate(301.299957 0)"/>
      <use xlink:href="#CMUSerif-Roman-63" transform="translate(356.799942 0)"/>
      <use xlink:href="#CMUSerif-Roman-65" transform="translate(401.199936 0)"/>
      <use xlink:href="#CMUSerif-Roman-20" transform="translate(445.59993 0)"/>
      <use xlink:href="#CMUSerif-Roman-28" transform="translate(478.899918 0)"/>
      <use xlink:href="#CMUSerif-Roman-48" transform="translate(517.699905 0)"/>
      <use xlink:href="#CMUSerif-Roman-7a" transform="translate(592.69989 0)"/>
      <use xlink:href="#CMUSerif-Roman-29" transform="translate(637.099884 0)"/>
     </g>
    </g>
   </g>
   <g id="matplotlib.axis_2">
    <g id="ytick_1">
     <g id="line2d_21">
      <path d="M 50.979687 462.761695 
L 943.779687 462.761695 
" clip-path="url(#p08d82149e0)" style="fill: none; stroke: #b0b0b0; stroke-width: 0.8; stroke-linecap: square"/>
     </g>
     <g id="line2d_22">
      <defs>
       <path id="m58f988eaa9" d="M 0 0 
L -3.5 0 
" style="stroke: #000000; stroke-width: 0.8"/>
      </defs>
      <g>
       <use xlink:href="#m58f988eaa9" x="50.979687" y="462.761695" style="stroke: #000000; stroke-width: 0.8"/>
      </g>
     </g>
     <g id="text_12">
      <!-- −100 -->
      <g transform="translate(21.2 466.232008) scale(0.1 -0.1)">
       <defs>
        <path id="CMUSerif-Roman-2212" d="M 365 1594 
Q 365 1670 493 1670 
L 4416 1670 
Q 4422 1670 4451 1670 
Q 4480 1670 4489 1670 
Q 4499 1670 4521 1670 
Q 4544 1670 4553 1664 
Q 4563 1658 4576 1651 
Q 4589 1645 4595 1632 
Q 4602 1619 4602 1600 
Q 4602 1523 4435 1523 
L 4422 1523 
Q 4403 1523 4368 1526 
Q 4333 1530 4314 1530 
L 710 1530 
Q 685 1530 637 1526 
Q 589 1523 563 1523 
L 531 1523 
Q 365 1523 365 1594 
z
" transform="scale(0.015625)"/>
       </defs>
       <use xlink:href="#CMUSerif-Roman-2212"/>
       <use xlink:href="#CMUSerif-Roman-31" transform="translate(77.799988 0)"/>
       <use xlink:href="#CMUSerif-Roman-30" transform="translate(127.799973 0)"/>
       <use xlink:href="#CMUSerif-Roman-30" transform="translate(177.799957 0)"/>
      </g>
     </g>
    </g>
    <g id="ytick_2">
     <g id="line2d_23">
      <path d="M 50.979687 380.835061 
L 943.779687 380.835061 
" clip-path="url(#p08d82149e0)" style="fill: none; stroke: #b0b0b0; stroke-width: 0.8; stroke-linecap: square"/>
     </g>
     <g id="line2d_24">
      <g>
       <use xlink:href="#m58f988eaa9" x="50.979687" y="380.835061" style="stroke: #000000; stroke-width: 0.8"/>
      </g>
     </g>
     <g id="text_13">
      <!-- −80 -->
      <g transform="translate(26.2 384.305374) scale(0.1 -0.1)">
       <use xlink:href="#CMUSerif-Roman-2212"/>
       <use xlink:href="#CMUSerif-Roman-38" transform="translate(77.799988 0)"/>
       <use xlink:href="#CMUSerif-Roman-30" transform="translate(127.799973 0)"/>
      </g>
     </g>
    </g>
    <g id="ytick_3">
     <g id="line2d_25">
      <path d="M 50.979687 298.908428 
L 943.779687 298.908428 
" clip-path="url(#p08d82149e0)" style="fill: none; stroke: #b0b0b0; stroke-width: 0.8; stroke-linecap: square"/>
     </g>
     <g id="line2d_26">
      <g>
       <use xlink:href="#m58f988eaa9" x="50.979687" y="298.908428" style="stroke: #000000; stroke-width: 0.8"/>
      </g>
     </g>
     <g id="text_14">
      <!-- −60 -->
      <g transform="translate(26.2 302.37874) scale(0.1 -0.1)">
       <use xlink:href="#CMUSerif-Roman-2212"/>
       <use xlink:href="#CMUSerif-Roman-36" transform="translate(77.799988 0)"/>
       <use xlink:href="#CMUSerif-Roman-30" transform="translate(127.799973 0)"/>
      </g>
     </g>
    </g>
    <g id="ytick_4">
     <g id="line2d_27">
      <path d="M 50.979687 216.981794 
L 943.779687 216.981794 
" clip-path="url(#p08d82149e0)" style="fill: none; stroke: #b0b0b0; stroke-width: 0.8; stroke-linecap: square"/>
     </g>
     <g id="line2d_28">
      <g>
       <use xlink:href="#m58f988eaa9" x="50.979687" y="216.981794" style="stroke: #000000; stroke-width: 0.8"/>
      </g>
     </g>
     <g id="text_15">
      <!-- −40 -->
      <g transform="translate(26.2 220.452106) scale(0.1 -0.1)">
       <use xlink:href="#CMUSerif-Roman-2212"/>
       <use xlink:href="#CMUSerif-Roman-34" transform="translate(77.799988 0)"/>
       <use xlink:href="#CMUSerif-Roman-30" transform="translate(127.799973 0)"/>
      </g>
     </g>
    </g>
    <g id="ytick_5">
     <g id="line2d_29">
      <path d="M 50.979687 135.05516 
L 943.779687 135.05516 
" clip-path="url(#p08d82149e0)" style="fill: none; stroke: #b0b0b0; stroke-width: 0.8; stroke-linecap: square"/>
     </g>
     <g id="line2d_30">
      <g>
       <use xlink:href="#m58f988eaa9" x="50.979687" y="135.05516" style="stroke: #000000; stroke-width: 0.8"/>
      </g>
     </g>
     <g id="text_16">
      <!-- −20 -->
      <g transform="translate(26.2 138.525473) scale(0.1 -0.1)">
       <use xlink:href="#CMUSerif-Roman-2212"/>
       <use xlink:href="#CMUSerif-Roman-32" transform="translate(77.799988 0)"/>
       <use xlink:href="#CMUSerif-Roman-30" transform="translate(127.799973 0)"/>
      </g>
     </g>
    </g>
    <g id="ytick_6">
     <g id="line2d_31">
      <path d="M 50.979687 53.128527 
L 943.779687 53.128527 
" clip-path="url(#p08d82149e0)" style="fill: none; stroke: #b0b0b0; stroke-width: 0.8; stroke-linecap: square"/>
     </g>
     <g id="line2d_32">
      <g>
       <use xlink:href="#m58f988eaa9" x="50.979687" y="53.128527" style="stroke: #000000; stroke-width: 0.8"/>
      </g>
     </g>
     <g id="text_17">
      <!-- 0 -->
      <g transform="translate(38.979687 56.598839) scale(0.1 -0.1)">
       <use xlink:href="#CMUSerif-Roman-30"/>
      </g>
     </g>
    </g>
    <g id="text_18">
     <!-- Amplitude (dB) -->
     <g transform="translate(14.7 306.169688) rotate(-90) scale(0.1 -0.1)">
      <defs>
       <path id="CMUSerif-Roman-41" d="M 205 0 
L 205 198 
Q 774 211 922 627 
L 2246 4454 
Q 2272 4531 2301 4556 
Q 2330 4582 2400 4582 
Q 2438 4582 2460 4576 
Q 2483 4570 2499 4547 
Q 2515 4525 2521 4512 
Q 2528 4499 2547 4454 
L 3930 454 
Q 3981 294 4083 246 
Q 4186 198 4474 198 
L 4589 198 
L 4589 0 
Q 4186 19 3750 19 
Q 3059 19 2829 0 
L 2829 198 
Q 3360 198 3360 390 
Q 3360 403 3341 480 
L 3002 1459 
L 1421 1459 
L 1126 621 
Q 1114 595 1114 525 
Q 1114 390 1238 294 
Q 1363 198 1594 198 
L 1594 0 
Q 979 19 858 19 
Q 646 19 205 0 
z
M 1491 1658 
L 2931 1658 
L 2208 3738 
L 1491 1658 
z
" transform="scale(0.015625)"/>
       <path id="CMUSerif-Roman-6d" d="M 205 0 
L 205 198 
Q 544 198 624 240 
Q 704 282 704 486 
L 704 2202 
Q 704 2438 621 2499 
Q 538 2560 205 2560 
L 205 2758 
L 1107 2829 
L 1107 2157 
Q 1408 2829 2054 2829 
Q 2803 2829 2906 2202 
Q 3014 2445 3244 2637 
Q 3475 2829 3834 2829 
Q 4314 2829 4506 2592 
Q 4646 2432 4675 2253 
Q 4704 2074 4704 1613 
L 4704 390 
Q 4710 256 4812 227 
Q 4915 198 5203 198 
L 5203 0 
Q 4550 19 4486 19 
Q 4435 19 3763 0 
L 3763 198 
Q 4102 198 4182 240 
Q 4262 282 4262 486 
L 4262 1978 
Q 4262 2304 4163 2496 
Q 4064 2688 3789 2688 
Q 3456 2688 3190 2409 
Q 2925 2131 2925 1664 
L 2925 486 
Q 2925 282 3005 240 
Q 3085 198 3424 198 
L 3424 0 
Q 2771 19 2707 19 
Q 2656 19 1984 0 
L 1984 198 
Q 2323 198 2403 240 
Q 2483 282 2483 486 
L 2483 1978 
Q 2483 2304 2384 2496 
Q 2285 2688 2010 2688 
Q 1677 2688 1411 2409 
Q 1146 2131 1146 1664 
L 1146 486 
Q 1146 282 1226 240 
Q 1306 198 1645 198 
L 1645 0 
Q 992 19 928 19 
Q 877 19 205 0 
z
" transform="scale(0.015625)"/>
       <path id="CMUSerif-Roman-70" d="M 179 -1043 
Q 518 -1043 598 -1001 
Q 678 -960 678 -755 
L 678 2240 
Q 678 2451 598 2505 
Q 518 2560 179 2560 
L 179 2758 
L 1101 2829 
L 1101 2406 
Q 1485 2829 1997 2829 
Q 2541 2829 2937 2406 
Q 3334 1984 3334 1382 
Q 3334 774 2912 352 
Q 2490 -70 1907 -70 
Q 1587 -70 1372 93 
Q 1158 256 1120 378 
L 1120 320 
L 1120 -755 
Q 1120 -960 1200 -1001 
Q 1280 -1043 1619 -1043 
L 1619 -1242 
Q 947 -1222 896 -1222 
Q 832 -1222 179 -1242 
L 179 -1043 
z
M 1120 730 
Q 1120 634 1133 598 
Q 1146 563 1210 461 
Q 1466 70 1882 70 
Q 2246 70 2524 444 
Q 2803 819 2803 1382 
Q 2803 1920 2550 2294 
Q 2298 2669 1946 2669 
Q 1696 2669 1478 2534 
Q 1261 2400 1120 2157 
L 1120 730 
z
" transform="scale(0.015625)"/>
       <path id="CMUSerif-Roman-6c" d="M 211 0 
L 211 198 
Q 550 198 630 240 
Q 710 282 710 486 
L 710 3814 
Q 710 4051 627 4112 
Q 544 4173 211 4173 
L 211 4371 
L 1133 4442 
L 1133 486 
Q 1133 282 1213 240 
Q 1293 198 1632 198 
L 1632 0 
Q 1555 0 1392 6 
Q 1229 13 1110 16 
Q 992 19 922 19 
Q 845 19 211 0 
z
" transform="scale(0.015625)"/>
       <path id="CMUSerif-Roman-69" d="M 211 0 
L 211 198 
Q 550 198 630 240 
Q 710 282 710 486 
L 710 2208 
Q 710 2445 630 2502 
Q 550 2560 237 2560 
L 237 2758 
L 1133 2829 
L 1133 480 
Q 1133 288 1200 243 
Q 1267 198 1581 198 
L 1581 0 
Q 928 19 915 19 
Q 826 19 211 0 
z
M 480 3942 
Q 480 4070 579 4176 
Q 678 4282 819 4282 
Q 960 4282 1059 4186 
Q 1158 4090 1158 3942 
Q 1158 3795 1059 3699 
Q 960 3603 819 3603 
Q 672 3603 576 3705 
Q 480 3808 480 3942 
z
" transform="scale(0.015625)"/>
       <path id="CMUSerif-Roman-74" d="M 122 2560 
L 122 2701 
Q 416 2714 611 2922 
Q 806 3130 873 3386 
Q 941 3642 947 3936 
L 1107 3936 
L 1107 2758 
L 2022 2758 
L 2022 2560 
L 1107 2560 
L 1107 781 
Q 1107 90 1536 90 
Q 1722 90 1843 278 
Q 1965 467 1965 806 
L 1965 1158 
L 2125 1158 
L 2125 794 
Q 2125 448 1965 189 
Q 1805 -70 1491 -70 
Q 1376 -70 1261 -41 
Q 1146 -13 998 64 
Q 851 141 758 329 
Q 666 518 666 794 
L 666 2560 
L 122 2560 
z
" transform="scale(0.015625)"/>
       <path id="CMUSerif-Roman-64" d="M 218 1376 
Q 218 1984 643 2406 
Q 1069 2829 1645 2829 
Q 2131 2829 2451 2432 
L 2451 3814 
Q 2451 4051 2368 4112 
Q 2285 4173 1952 4173 
L 1952 4371 
L 2874 4442 
L 2874 557 
Q 2874 320 2957 259 
Q 3040 198 3373 198 
L 3373 0 
L 2432 -70 
L 2432 352 
Q 2099 -70 1574 -70 
Q 1024 -70 621 352 
Q 218 774 218 1376 
z
M 749 1370 
Q 749 774 934 480 
Q 1190 70 1606 70 
Q 2080 70 2362 518 
Q 2432 627 2432 755 
L 2432 2067 
Q 2432 2195 2362 2304 
Q 2099 2688 1670 2688 
Q 1222 2688 947 2278 
Q 749 1971 749 1370 
z
" transform="scale(0.015625)"/>
       <path id="CMUSerif-Roman-42" d="M 230 0 
L 230 198 
L 384 198 
Q 730 198 810 256 
Q 890 314 890 499 
L 890 3872 
Q 890 4058 810 4115 
Q 730 4173 384 4173 
L 230 4173 
L 230 4371 
L 2573 4371 
Q 3181 4371 3587 4044 
Q 3994 3718 3994 3290 
Q 3994 2938 3696 2656 
Q 3398 2374 2931 2285 
Q 3462 2227 3814 1907 
Q 4166 1587 4166 1171 
Q 4166 704 3763 352 
Q 3360 0 2739 0 
L 230 0 
z
M 1421 454 
Q 1421 288 1469 243 
Q 1517 198 1734 198 
L 2534 198 
Q 2995 198 3260 499 
Q 3526 800 3526 1177 
Q 3526 1555 3292 1878 
Q 3059 2202 2624 2202 
L 1421 2202 
L 1421 454 
z
M 1421 2342 
L 2349 2342 
Q 2842 2342 3107 2640 
Q 3373 2938 3373 3290 
Q 3373 3603 3161 3888 
Q 2950 4173 2528 4173 
L 1734 4173 
Q 1517 4173 1469 4128 
Q 1421 4083 1421 3917 
L 1421 2342 
z
" transform="scale(0.015625)"/>
      </defs>
      <use xlink:href="#CMUSerif-Roman-41"/>
      <use xlink:href="#CMUSerif-Roman-6d" transform="translate(74.999985 0)"/>
      <use xlink:href="#CMUSerif-Roman-70" transform="translate(158.299973 0)"/>
      <use xlink:href="#CMUSerif-Roman-6c" transform="translate(213.799957 0)"/>
      <use xlink:href="#CMUSerif-Roman-69" transform="translate(241.499954 0)"/>
      <use xlink:href="#CMUSerif-Roman-74" transform="translate(269.199951 0)"/>
      <use xlink:href="#CMUSerif-Roman-75" transform="translate(307.999939 0)"/>
      <use xlink:href="#CMUSerif-Roman-64" transform="translate(363.499924 0)"/>
      <use xlink:href="#CMUSerif-Roman-65" transform="translate(418.999908 0)"/>
      <use xlink:href="#CMUSerif-Roman-20" transform="translate(463.399902 0)"/>
      <use xlink:href="#CMUSerif-Roman-28" transform="translate(496.69989 0)"/>
      <use xlink:href="#CMUSerif-Roman-64" transform="translate(535.499878 0)"/>
      <use xlink:href="#CMUSerif-Roman-42" transform="translate(590.999863 0)"/>
      <use xlink:href="#CMUSerif-Roman-29" transform="translate(661.79985 0)"/>
     </g>
    </g>
   </g>
   <g id="line2d_33">
    <path d="M 50.979687 44.34 
L 100.411552 89.733612 
L 149.843416 144.412341 
L 199.275281 174.081217 
L 248.707145 194.818227 
L 298.13901 210.81489 
L 347.570874 223.850662 
L 397.002738 234.855854 
L 446.434603 244.380034 
L 495.866467 252.775531 
L 545.298332 260.281983 
L 594.730196 267.069859 
L 644.16206 273.264797 
L 693.593925 278.962072 
L 743.025789 284.235667 
L 792.457654 289.144184 
L 841.889518 293.734833 
L 891.321382 298.046209 
L 959.479687 303.56632 
L 959.479687 303.56632 
" clip-path="url(#p08d82149e0)" style="fill: none; stroke: #1f77b4; stroke-width: 1.5; stroke-linecap: square"/>
   </g>
   <g id="line2d_34">
    <path d="M 50.979687 65.417522 
L 943.779687 65.417522 
" clip-path="url(#p08d82149e0)" style="fill: none; stroke-dasharray: 2.96,1.28; stroke-dashoffset: 0; stroke: #ff0000; stroke-width: 0.8"/>
   </g>
   <g id="patch_3">
    <path d="M 50.979687 520.62 
L 50.979687 21.66 
" style="fill: none; stroke: #000000; stroke-width: 0.8; stroke-linejoin: miter; stroke-linecap: square"/>
   </g>
   <g id="patch_4">
    <path d="M 943.779687 520.62 
L 943.779687 21.66 
" style="fill: none; stroke: #000000; stroke-width: 0.8; stroke-linejoin: miter; stroke-linecap: square"/>
   </g>
   <g id="patch_5">
    <path d="M 50.979687 520.62 
L 943.779687 520.62 
" style="fill: none; stroke: #000000; stroke-width: 0.8; stroke-linejoin: miter; stroke-linecap: square"/>
   </g>
   <g id="patch_6">
    <path d="M 50.979687 21.66 
L 943.779687 21.66 
" style="fill: none; stroke: #000000; stroke-width: 0.8; stroke-linejoin: miter; stroke-linecap: square"/>
   </g>
   <g id="text_19">
    <!-- Réponse en fréquence du filtre RIF -->
    <g transform="translate(405.326563 15.66) scale(0.12 -0.12)">
     <defs>
      <path id="CMUSerif-Roman-52" d="M 224 0 
L 224 198 
L 378 198 
Q 723 198 803 256 
Q 883 314 883 499 
L 883 3872 
Q 883 4058 803 4115 
Q 723 4173 378 4173 
L 224 4173 
L 224 4371 
L 2234 4371 
Q 2931 4371 3417 4028 
Q 3904 3686 3904 3219 
Q 3904 2861 3587 2579 
Q 3270 2298 2784 2176 
Q 3418 1958 3565 1434 
L 3648 922 
Q 3674 736 3690 643 
Q 3706 550 3734 422 
Q 3763 294 3792 233 
Q 3821 173 3865 109 
Q 3910 45 3968 22 
Q 4026 0 4102 0 
Q 4250 0 4374 131 
Q 4499 262 4525 570 
Q 4538 672 4602 672 
Q 4685 672 4685 563 
Q 4685 480 4659 374 
Q 4634 269 4573 147 
Q 4512 26 4381 -57 
Q 4250 -141 4077 -141 
Q 3578 -141 3270 128 
Q 3142 243 3084 393 
Q 3027 544 3017 662 
Q 3008 781 3008 1043 
Q 3008 1414 2969 1577 
Q 2931 1741 2765 1901 
Q 2541 2118 2170 2118 
L 1434 2118 
L 1434 499 
Q 1434 314 1514 256 
Q 1594 198 1939 198 
L 2093 198 
L 2093 0 
Q 1862 19 1158 19 
Q 454 19 224 0 
z
M 1434 2259 
L 2144 2259 
Q 2483 2259 2713 2342 
Q 2944 2426 3053 2576 
Q 3162 2726 3203 2876 
Q 3245 3027 3245 3219 
Q 3245 3443 3193 3612 
Q 3142 3782 3033 3881 
Q 2925 3981 2816 4045 
Q 2707 4109 2537 4134 
Q 2368 4160 2253 4166 
Q 2138 4173 1952 4173 
Q 1638 4173 1574 4160 
Q 1504 4154 1475 4118 
Q 1446 4083 1440 4044 
Q 1434 4006 1434 3917 
L 1434 2259 
z
" transform="scale(0.015625)"/>
      <path id="CMUSerif-Roman-6f" d="M 601 346 
Q 179 762 179 1370 
Q 179 1978 592 2422 
Q 1005 2867 1600 2867 
Q 2182 2867 2598 2425 
Q 3014 1984 3014 1370 
Q 3014 768 2595 349 
Q 2176 -70 1594 -70 
Q 1024 -70 601 346 
z
M 710 1421 
Q 710 800 870 518 
Q 1120 90 1600 90 
Q 1837 90 2035 218 
Q 2234 346 2342 563 
Q 2483 845 2483 1421 
Q 2483 2035 2317 2310 
Q 2067 2726 1594 2726 
Q 1389 2726 1187 2617 
Q 986 2509 864 2298 
Q 710 2016 710 1421 
z
" transform="scale(0.015625)"/>
      <path id="CMUSerif-Roman-73" d="M 211 83 
L 211 928 
Q 211 998 214 1024 
Q 218 1050 237 1069 
Q 256 1088 294 1088 
Q 339 1088 355 1069 
Q 371 1050 384 979 
Q 480 538 688 304 
Q 896 70 1274 70 
Q 1632 70 1814 230 
Q 1997 390 1997 653 
Q 1997 1120 1331 1242 
Q 947 1318 787 1369 
Q 627 1421 486 1536 
Q 211 1760 211 2080 
Q 211 2400 454 2633 
Q 698 2867 1235 2867 
Q 1594 2867 1837 2688 
Q 1907 2746 1946 2790 
Q 2029 2867 2074 2867 
Q 2125 2867 2134 2835 
Q 2144 2803 2144 2714 
L 2144 2067 
Q 2144 1997 2141 1971 
Q 2138 1946 2118 1930 
Q 2099 1914 2061 1914 
Q 1990 1914 1984 1971 
Q 1933 2746 1235 2746 
Q 858 2746 688 2602 
Q 518 2458 518 2259 
Q 518 2150 569 2067 
Q 621 1984 688 1936 
Q 755 1888 880 1843 
Q 1005 1798 1081 1782 
Q 1158 1766 1306 1734 
Q 1818 1638 2035 1427 
Q 2304 1158 2304 819 
Q 2304 442 2048 186 
Q 1792 -70 1274 -70 
Q 858 -70 570 205 
Q 531 166 502 134 
Q 474 102 464 89 
Q 454 77 451 70 
Q 448 64 442 58 
Q 314 -70 282 -70 
Q 230 -70 220 -38 
Q 211 -6 211 83 
z
" transform="scale(0.015625)"/>
      <path id="CMUSerif-Roman-66" d="M 211 2560 
L 211 2758 
L 717 2758 
L 717 3494 
Q 717 3968 1024 4240 
Q 1331 4512 1709 4512 
Q 1958 4512 2121 4377 
Q 2285 4243 2285 4064 
Q 2285 3942 2211 3862 
Q 2138 3782 2003 3782 
Q 1875 3782 1801 3862 
Q 1728 3942 1728 4058 
Q 1728 4262 1920 4326 
Q 1824 4371 1709 4371 
Q 1478 4371 1299 4134 
Q 1120 3898 1120 3501 
L 1120 2758 
L 1869 2758 
L 1869 2560 
L 1139 2560 
L 1139 499 
Q 1139 314 1216 256 
Q 1293 198 1626 198 
L 1760 198 
L 1760 0 
Q 1504 19 947 19 
Q 870 19 748 16 
Q 627 13 467 6 
Q 307 0 218 0 
L 218 198 
Q 557 198 637 240 
Q 717 282 717 486 
L 717 2560 
L 211 2560 
z
" transform="scale(0.015625)"/>
      <path id="CMUSerif-Roman-49" d="M 179 0 
L 179 198 
L 346 198 
Q 704 198 787 256 
Q 870 314 870 499 
L 870 3872 
Q 870 4058 787 4115 
Q 704 4173 346 4173 
L 179 4173 
L 179 4371 
Q 403 4352 1158 4352 
Q 1907 4352 2131 4371 
L 2131 4173 
L 1965 4173 
Q 1606 4173 1523 4115 
Q 1440 4058 1440 3872 
L 1440 499 
Q 1440 314 1523 256 
Q 1606 198 1965 198 
L 2131 198 
L 2131 0 
Q 1907 19 1152 19 
Q 403 19 179 0 
z
" transform="scale(0.015625)"/>
     </defs>
     <use xlink:href="#CMUSerif-Roman-52"/>
     <use xlink:href="#CMUSerif-Roman-e9" transform="translate(73.599991 0)"/>
     <use xlink:href="#CMUSerif-Roman-70" transform="translate(117.999985 0)"/>
     <use xlink:href="#CMUSerif-Roman-6f" transform="translate(173.499969 0)"/>
     <use xlink:href="#CMUSerif-Roman-6e" transform="translate(223.499954 0)"/>
     <use xlink:href="#CMUSerif-Roman-73" transform="translate(278.999939 0)"/>
     <use xlink:href="#CMUSerif-Roman-65" transform="translate(318.399933 0)"/>
     <use xlink:href="#CMUSerif-Roman-20" transform="translate(362.799927 0)"/>
     <use xlink:href="#CMUSerif-Roman-65" transform="translate(396.099915 0)"/>
     <use xlink:href="#CMUSerif-Roman-6e" transform="translate(440.499908 0)"/>
     <use xlink:href="#CMUSerif-Roman-20" transform="translate(495.999893 0)"/>
     <use xlink:href="#CMUSerif-Roman-66" transform="translate(529.299881 0)"/>
     <use xlink:href="#CMUSerif-Roman-72" transform="translate(559.799866 0)"/>
     <use xlink:href="#CMUSerif-Roman-e9" transform="translate(598.899857 0)"/>
     <use xlink:href="#CMUSerif-Roman-71" transform="translate(643.29985 0)"/>
     <use xlink:href="#CMUSerif-Roman-75" transform="translate(695.999847 0)"/>
     <use xlink:href="#CMUSerif-Roman-65" transform="translate(751.499832 0)"/>
     <use xlink:href="#CMUSerif-Roman-6e" transform="translate(795.899826 0)"/>
     <use xlink:href="#CMUSerif-Roman-63" transform="translate(851.399811 0)"/>
     <use xlink:href="#CMUSerif-Roman-65" transform="translate(895.799805 0)"/>
     <use xlink:href="#CMUSerif-Roman-20" transform="translate(940.199799 0)"/>
     <use xlink:href="#CMUSerif-Roman-64" transform="translate(973.499786 0)"/>
     <use xlink:href="#CMUSerif-Roman-75" transform="translate(1028.999771 0)"/>
     <use xlink:href="#CMUSerif-Roman-20" transform="translate(1084.499756 0)"/>
     <use xlink:href="#CMUSerif-Roman-66" transform="translate(1117.799744 0)"/>
     <use xlink:href="#CMUSerif-Roman-69" transform="translate(1148.299728 0)"/>
     <use xlink:href="#CMUSerif-Roman-6c" transform="translate(1175.999725 0)"/>
     <use xlink:href="#CMUSerif-Roman-74" transform="translate(1203.699722 0)"/>
     <use xlink:href="#CMUSerif-Roman-72" transform="translate(1242.49971 0)"/>
     <use xlink:href="#CMUSerif-Roman-65" transform="translate(1281.599701 0)"/>
     <use xlink:href="#CMUSerif-Roman-20" transform="translate(1325.999695 0)"/>
     <use xlink:href="#CMUSerif-Roman-52" transform="translate(1359.299683 0)"/>
     <use xlink:href="#CMUSerif-Roman-49" transform="translate(1432.899673 0)"/>
     <use xlink:href="#CMUSerif-Roman-46" transform="translate(1468.999664 0)"/>
    </g>
   </g>
   <g id="PathCollection_1">
    <defs>
     <path id="mf7566d64b4" d="M 0 3 
C 0.795609 3 1.55874 2.683901 2.12132 2.12132 
C 2.683901 1.55874 3 0.795609 3 0 
C 3 -0.795609 2.683901 -1.55874 2.12132 -2.12132 
C 1.55874 -2.683901 0.795609 -3 0 -3 
C -0.795609 -3 -1.55874 -2.683901 -2.12132 -2.12132 
C -2.683901 -1.55874 -3 -0.795609 -3 0 
C -3 0.795609 -2.683901 1.55874 -2.12132 2.12132 
C -1.55874 2.683901 -0.795609 3 0 3 
z
" style="stroke: #ff0000"/>
    </defs>
    <g clip-path="url(#p08d82149e0)">
     <use xlink:href="#mf7566d64b4" x="72.853287" y="65.417522" style="fill: #ff0000; stroke: #ff0000"/>
    </g>
   </g>
   <g id="legend_1">
    <g id="patch_7">
     <path d="M 782.067187 57.54125 
L 936.779687 57.54125 
Q 938.779687 57.54125 938.779687 55.54125 
L 938.779687 28.66 
Q 938.779687 26.66 936.779687 26.66 
L 782.067187 26.66 
Q 780.067187 26.66 780.067187 28.66 
L 780.067187 55.54125 
Q 780.067187 57.54125 782.067187 57.54125 
z
" style="fill: #ffffff; opacity: 0.8; stroke: #cccccc; stroke-linejoin: miter"/>
    </g>
    <g id="line2d_35">
     <path d="M 784.067187 34.16 
L 794.067187 34.16 
L 804.067187 34.16 
" style="fill: none; stroke: #1f77b4; stroke-width: 1.5; stroke-linecap: square"/>
    </g>
    <g id="text_20">
     <!-- réponse -->
     <g transform="translate(812.067187 37.66) scale(0.1 -0.1)">
      <use xlink:href="#CMUSerif-Roman-72"/>
      <use xlink:href="#CMUSerif-Roman-e9" transform="translate(39.099991 0)"/>
      <use xlink:href="#CMUSerif-Roman-70" transform="translate(83.499985 0)"/>
      <use xlink:href="#CMUSerif-Roman-6f" transform="translate(138.999969 0)"/>
      <use xlink:href="#CMUSerif-Roman-6e" transform="translate(188.999954 0)"/>
      <use xlink:href="#CMUSerif-Roman-73" transform="translate(244.499939 0)"/>
      <use xlink:href="#CMUSerif-Roman-65" transform="translate(283.899933 0)"/>
     </g>
    </g>
    <g id="PathCollection_2">
     <g>
      <use xlink:href="#mf7566d64b4" x="794.067187" y="48.975625" style="fill: #ff0000; stroke: #ff0000"/>
     </g>
    </g>
    <g id="text_21">
     <!-- Fréquence de coupure, -3dB -->
     <g transform="translate(812.067187 51.600625) scale(0.1 -0.1)">
      <defs>
       <path id="CMUSerif-Roman-2c" d="M 640 102 
Q 550 205 550 339 
Q 550 474 640 576 
Q 730 678 890 678 
Q 1082 678 1190 496 
Q 1299 314 1299 6 
Q 1299 -326 1164 -633 
Q 1030 -941 899 -1088 
Q 768 -1235 717 -1235 
Q 653 -1235 653 -1165 
Q 653 -1139 698 -1094 
Q 1158 -602 1158 6 
Q 1158 102 1146 102 
L 1133 90 
Q 1024 0 890 0 
Q 730 0 640 102 
z
" transform="scale(0.015625)"/>
       <path id="CMUSerif-Roman-2d" d="M 64 1190 
L 64 1568 
L 1766 1568 
L 1766 1190 
L 64 1190 
z
" transform="scale(0.015625)"/>
      </defs>
      <use xlink:href="#CMUSerif-Roman-46"/>
      <use xlink:href="#CMUSerif-Roman-72" transform="translate(65.199997 0)"/>
      <use xlink:href="#CMUSerif-Roman-e9" transform="translate(104.299988 0)"/>
      <use xlink:href="#CMUSerif-Roman-71" transform="translate(148.699982 0)"/>
      <use xlink:href="#CMUSerif-Roman-75" transform="translate(201.399979 0)"/>
      <use xlink:href="#CMUSerif-Roman-65" transform="translate(256.899963 0)"/>
      <use xlink:href="#CMUSerif-Roman-6e" transform="translate(301.299957 0)"/>
      <use xlink:href="#CMUSerif-Roman-63" transform="translate(356.799942 0)"/>
      <use xlink:href="#CMUSerif-Roman-65" transform="translate(401.199936 0)"/>
      <use xlink:href="#CMUSerif-Roman-20" transform="translate(445.59993 0)"/>
      <use xlink:href="#CMUSerif-Roman-64" transform="translate(478.899918 0)"/>
      <use xlink:href="#CMUSerif-Roman-65" transform="translate(534.399902 0)"/>
      <use xlink:href="#CMUSerif-Roman-20" transform="translate(578.799896 0)"/>
      <use xlink:href="#CMUSerif-Roman-63" transform="translate(612.099884 0)"/>
      <use xlink:href="#CMUSerif-Roman-6f" transform="translate(656.499878 0)"/>
      <use xlink:href="#CMUSerif-Roman-75" transform="translate(706.499863 0)"/>
      <use xlink:href="#CMUSerif-Roman-70" transform="translate(761.999847 0)"/>
      <use xlink:href="#CMUSerif-Roman-75" transform="translate(817.499832 0)"/>
      <use xlink:href="#CMUSerif-Roman-72" transform="translate(872.999817 0)"/>
      <use xlink:href="#CMUSerif-Roman-65" transform="translate(912.099808 0)"/>
      <use xlink:href="#CMUSerif-Roman-2c" transform="translate(956.499802 0)"/>
      <use xlink:href="#CMUSerif-Roman-20" transform="translate(984.199799 0)"/>
      <use xlink:href="#CMUSerif-Roman-2d" transform="translate(1017.499786 0)"/>
      <use xlink:href="#CMUSerif-Roman-33" transform="translate(1050.799774 0)"/>
      <use xlink:href="#CMUSerif-Roman-64" transform="translate(1100.799759 0)"/>
      <use xlink:href="#CMUSerif-Roman-42" transform="translate(1156.299744 0)"/>
     </g>
    </g>
   </g>
  </g>
 </g>
 <defs>
  <clipPath id="p08d82149e0">
   <rect x="50.979687" y="21.66" width="892.8" height="498.96"/>
  </clipPath>
 </defs>
</svg>
